<svg xmlns="http://www.w3.org/2000/svg" width="146" height="25" viewBox="0 0 146 25"><g fill="none" fill-rule="evenodd"><path fill="#0EBAC5" d="M11.639.2l4.68 2.702.002-.003.255.147.03.018.013.008 4.711 2.72.257.147a1.007 1.007 0 0 1 .504.882h.001v6.76l-2.018-1.165V7.392l-4.459-2.575-.016-.007-.03-.018-.256-.147.002-.003-4.253-2.456L6.621 4.75a.753.753 0 0 1-.025.018h-.001l-.04.024-.256.148L2.05 7.392v10.412l4.459 2.574.016.008.03.017.256.148-.002.002 1.886 1.09.15.086v2.32l-.444-.257-2.596-1.498-.001.002-.256-.147-.03-.018-.017-.01-4.707-2.718v.001l-.256-.148a1.005 1.005 0 0 1-.504-.882H.032V6.812a1 1 0 0 1 .155-.533H.186c.1-.16.242-.29.411-.373l4.695-2.71-.001-.002.256-.148a.987.987 0 0 1 .042-.023l.01-.004.204-.119.001.002 4.5-2.597-.002-.003.257-.149a1.006 1.006 0 0 1 1.08.047zM8.701 9.837l11.373 6.565v-2.027l2.018 1.16v2.266l-.997 1.021c-.14.18-.356.313-.533.21h.001l-8.447-4.89v9.341a.297.297 0 0 1-.108.257l-.187-.23.185.23-1.414 1.145a.297.297 0 0 1-.5-.218h.002V12.975l-1.895-1.094-1.002.579a.311.311 0 0 1-.023.015v-.001l-.598.345a.297.297 0 0 1-.422-.097l.257-.15-.256.149-.357-.614-.006-.01-.346-.597a.297.297 0 0 1 .098-.424l.147.257-.147-.256.619-.356L7.7 9.837l.33-.19a.297.297 0 0 1 .32-.015l-.001.001.352.204zm20.129 9.332a.416.416 0 0 1-.303-.13.416.416 0 0 1-.13-.303V7.484a.43.43 0 0 1 .433-.433h2.423c.127 0 .23.041.312.122.08.08.12.185.12.311v8.967h5.194c.127 0 .234.044.32.13.087.087.13.193.13.32v1.835a.407.407 0 0 1-.13.312.452.452 0 0 1-.32.121h-8.05zm9.278 0a.346.346 0 0 1-.25-.113.347.347 0 0 1-.114-.25.53.53 0 0 1 .018-.156l4.033-11.096c.116-.335.346-.502.693-.502h2.7c.346 0 .577.167.692.502l4.034 11.096a.522.522 0 0 1 .017.155.348.348 0 0 1-.113.251.347.347 0 0 1-.25.113h-2.251a.6.6 0 0 1-.588-.38l-.624-1.68H41.57l-.623 1.68a.6.6 0 0 1-.589.38h-2.25zm4.19-4.656h3.08l-1.54-4.415-1.54 4.415zm9.399 4.656a.452.452 0 0 1-.32-.121.408.408 0 0 1-.13-.312V7.502c0-.127.043-.234.13-.32a.435.435 0 0 1 .32-.13h1.956c.288 0 .496.127.623.38l2.977 5.332 2.995-5.332a.647.647 0 0 1 .623-.38h1.956c.127 0 .234.043.32.13.087.086.13.193.13.32v11.234a.407.407 0 0 1-.13.312.452.452 0 0 1-.32.121H60.63a.416.416 0 0 1-.303-.13.416.416 0 0 1-.13-.303v-6.3l-1.87 3.427c-.15.265-.351.398-.605.398h-.935c-.23 0-.433-.133-.606-.398l-1.852-3.428v6.301a.407.407 0 0 1-.13.312.452.452 0 0 1-.32.121h-2.181zm14.367 0a.415.415 0 0 1-.302-.13.415.415 0 0 1-.13-.303V7.502c0-.127.04-.234.12-.32a.408.408 0 0 1 .312-.13h5.35c1.465 0 2.555.3 3.271.9.715.6 1.073 1.454 1.073 2.562 0 .554-.147 1.033-.441 1.436-.294.404-.62.699-.978.883.473.208.871.551 1.194 1.03.323.48.485 1.019.485 1.619 0 1.165-.384 2.071-1.151 2.718-.768.646-1.867.969-3.298.969h-5.505zm4.986-7.322c.427 0 .756-.116.987-.347.23-.23.346-.53.346-.9 0-.357-.113-.649-.338-.874-.225-.225-.557-.337-.995-.337h-2.164v2.458h2.164zm.156 4.985c.45 0 .799-.13 1.047-.39.248-.259.372-.58.372-.96 0-.392-.127-.718-.38-.978-.255-.26-.6-.39-1.04-.39h-2.319v2.718h2.32zm7.097 2.337a.416.416 0 0 1-.303-.13.415.415 0 0 1-.13-.303V7.502c0-.127.04-.234.121-.32a.407.407 0 0 1 .312-.13h4.553c1.708 0 3.035.406 3.981 1.22.946.814 1.443 1.982 1.488 3.505.012.335.018.78.018 1.333 0 .554-.006.993-.018 1.316-.115 3.162-1.91 4.743-5.383 4.743h-4.64zm4.553-2.597c.726 0 1.263-.173 1.61-.519.346-.346.53-.9.553-1.662.023-.334.035-.767.035-1.298 0-.53-.011-.958-.035-1.28-.023-.74-.222-1.285-.597-1.637-.375-.352-.926-.528-1.653-.528h-1.645v6.924h1.732zm6.785 2.597a.347.347 0 0 1-.25-.113.347.347 0 0 1-.113-.25c0-.07.005-.122.017-.156l4.033-11.096c.116-.335.347-.502.693-.502h2.7c.346 0 .577.167.693.502l4.033 11.096a.524.524 0 0 1 .017.155.347.347 0 0 1-.112.251.346.346 0 0 1-.251.113h-2.25a.6.6 0 0 1-.59-.38l-.622-1.68h-4.536l-.623 1.68a.6.6 0 0 1-.588.38h-2.25zm4.19-4.656h3.08l-1.54-4.415-1.54 4.415z"/><path fill="#343534" d="M105.896 19.169a.453.453 0 0 1-.32-.121.407.407 0 0 1-.13-.312V9.873h-3.047a.452.452 0 0 1-.32-.12.407.407 0 0 1-.13-.312V7.5c0-.126.043-.233.13-.32a.435.435 0 0 1 .32-.13h9.4a.44.44 0 0 1 .32.13.44.44 0 0 1 .13.32v1.94c0 .127-.044.23-.13.311a.453.453 0 0 1-.32.121h-3.047v8.863a.407.407 0 0 1-.13.312.452.452 0 0 1-.32.121h-2.406zm8.309 0a.415.415 0 0 1-.303-.13.415.415 0 0 1-.13-.303V7.502a.45.45 0 0 1 .121-.32.407.407 0 0 1 .312-.13h8.17c.127 0 .234.043.32.13.087.086.13.193.13.32v1.714c0 .127-.043.23-.13.31a.451.451 0 0 1-.32.122h-5.47v2.199h5.09c.126 0 .233.043.32.13.086.086.13.193.13.32v1.575a.435.435 0 0 1-.13.32.436.436 0 0 1-.32.13h-5.09v2.25h5.609a.44.44 0 0 1 .32.13c.086.087.13.193.13.32v1.714a.41.41 0 0 1-.13.312.453.453 0 0 1-.32.121h-8.31zm15.267.173c-1.119 0-2.07-.161-2.856-.485-.784-.323-1.379-.75-1.783-1.28-.404-.531-.617-1.108-.64-1.732 0-.103.037-.19.112-.26a.383.383 0 0 1 .269-.103h2.302c.138 0 .25.023.337.07.087.045.182.126.286.241.15.277.384.505.701.684.318.18.741.268 1.272.268.624 0 1.103-.095 1.437-.285.335-.19.502-.453.502-.788a.768.768 0 0 0-.26-.597c-.172-.156-.45-.294-.83-.415a18 18 0 0 0-1.645-.407c-1.396-.277-2.44-.698-3.133-1.264-.692-.565-1.038-1.373-1.038-2.423 0-.716.198-1.353.597-1.913.398-.56.963-.995 1.696-1.307.733-.312 1.584-.467 2.553-.467 1.016 0 1.896.176 2.64.527.744.353 1.316.791 1.714 1.316.398.525.609 1.042.632 1.55a.382.382 0 0 1-.104.268.338.338 0 0 1-.26.112h-2.423a.666.666 0 0 1-.589-.311c-.07-.243-.248-.447-.536-.615-.289-.167-.647-.25-1.074-.25-.484 0-.86.086-1.125.259-.265.173-.398.427-.398.761 0 .335.173.598.52.788.346.19.992.384 1.938.58 1.085.196 1.948.441 2.588.736.64.294 1.113.675 1.42 1.142.305.468.458 1.06.458 1.775 0 .784-.225 1.465-.675 2.042-.45.577-1.073 1.018-1.87 1.324-.796.306-1.708.459-2.735.459zm10.058-.173a.452.452 0 0 1-.32-.121.407.407 0 0 1-.13-.312V9.873h-3.047a.452.452 0 0 1-.32-.12.407.407 0 0 1-.13-.312V7.5c0-.126.043-.233.13-.32a.435.435 0 0 1 .32-.13h9.4c.127 0 .233.044.32.13a.44.44 0 0 1 .13.32v1.94c0 .127-.044.23-.13.311a.452.452 0 0 1-.32.121h-3.047v8.863a.407.407 0 0 1-.13.312.45.45 0 0 1-.32.121h-2.406z"/></g></svg>